<svg xmlns="http://www.w3.org/2000/svg" width="32" height="32" viewBox="0 0 448 512"><path fill="#fff" d="M380.9 97.1C339-21.2 224.3-33.8 140.6 30.3c-33.5 25.4-55.6 60.1-66.8 99.7-16.8 62.3-3.6 128.4 35.9 177.6l-39 112.6c-3.7 10.7 7.2 20.1 17.4 15.3l113.2-47.4c46.8 25.1 101.2 31.2 153.5 14.6 92.1-29.4 148.2-130.3 117.1-222.6zM224 405c-32.2 0-63.1-8.3-90.2-24.1l-6.4-3.7-67.1 28.1 25.2-72.8-4.4-5.5c-30.3-38.3-42.1-88.4-31.6-136.1 8.9-41.5 33.6-77.7 68.6-102.3C190.7 47.6 284 59.6 330.8 128c20.6 30.8 27.6 68.1 19.6 104-11.2 50.7-50.4 90-101.2 102.3-12.3 2.8-25.1 4.2-37.6 4.2zm61.7-122.6c-5.4-2.7-32-15.8-37-17.6-5-1.9-8.6-2.7-12.2 2.7s-14 17.6-17.1 21.3-6.3 4.1-11.7 1.4-22.8-8.4-43.4-26.8c-16-14.3-26.8-31.9-29.9-37.3-3.1-5.4-.3-8.2 2.4-11.2 2.5-2.7 5.4-7.2 8.1-10.8 2.7-3.6 3.6-6.2 5.4-10.3 1.8-4.1.9-7.7-.5-10.6s-12.2-29.5-16.8-40.3c-4.4-10.5-8.9-9-12.2-9.1s-6.6-.1-10.1-.1-9.3 1.3-14.2 7.1c-4.9 5.8-18.7 18.2-18.7 44.5s19.2 51.7 21.9 55.3c2.7 3.6 37.6 57.4 91.3 80.5 53.7 23 53.7 15.3 63.4 14.3s31.3-12.7 35.7-25c4.4-12.2 4.4-22.7 3.1-25.1-1.4-2.4-4.9-3.8-10.3-6.4z"></path></svg>
